<svg width="70" height="61" viewBox="0 0 70 61" fill="none" xmlns="http://www.w3.org/2000/svg">
<path d="M23.5345 51.0981C24.9909 53.6207 24.1798 56.8155 21.7228 58.2341C19.2658 59.6526 16.0934 58.7577 14.637 56.2351C13.1806 53.7126 13.9918 50.5178 16.4488 49.0992C18.9058 47.6807 22.0782 48.5756 23.5345 51.0981Z" fill="#C2F1B7"/>
<path d="M63.7455 20.5532C64.9435 22.6283 64.2762 25.2564 62.255 26.4234C60.2339 27.5903 57.6242 26.8541 56.4261 24.779C55.228 22.7039 55.8953 20.0757 57.9165 18.9088C59.9377 17.7419 62.5474 18.4781 63.7455 20.5532Z" fill="#FF6A4D"/>
<path d="M25.3571 20.9231C26.439 22.797 25.8838 25.143 24.1169 26.163C22.3501 27.1831 20.0408 26.491 18.9589 24.6171C17.877 22.7432 18.4323 20.3972 20.1991 19.3771C21.9659 18.357 24.2752 19.0492 25.3571 20.9231Z" fill="#B1B2DD"/>
<path d="M46.5345 37.0979C47.9909 39.6204 47.1798 42.8153 44.7228 44.2338C42.2658 45.6524 39.0934 44.7574 37.637 42.2349C36.1806 39.7124 36.9918 36.5175 39.4488 35.099C41.9058 33.6804 45.0782 34.5754 46.5345 37.0979Z" fill="#2E1A47"/>
</svg>
