<svg width="70" height="61" viewBox="0 0 70 61" fill="none" xmlns="http://www.w3.org/2000/svg">
<path d="M46.0211 9.90186C44.5647 7.37934 45.3759 4.18448 47.8329 2.76594C50.2899 1.3474 53.4623 2.24234 54.9187 4.76486C56.375 7.28737 55.5639 10.4822 53.1069 11.9008C50.6499 13.3193 47.4775 12.4244 46.0211 9.90186Z" fill="#C2F1B7"/>
<path d="M5.81021 40.4468C4.61215 38.3717 5.27943 35.7436 7.30062 34.5766C9.3218 33.4097 11.9315 34.1459 13.1296 36.221C14.3276 38.2961 13.6603 40.9243 11.6392 42.0912C9.61797 43.2581 7.00826 42.5219 5.81021 40.4468Z" fill="#FF6A4D"/>
<path d="M44.1985 40.0769C43.1167 38.203 43.6719 35.857 45.4387 34.837C47.2055 33.8169 49.5149 34.509 50.5967 36.3829C51.6786 38.2568 51.1234 40.6028 49.3566 41.6229C47.5897 42.643 45.2804 41.9508 44.1985 40.0769Z" fill="#B1B2DD"/>
</svg>
