<svg width="106" height="108" viewBox="0 0 106 108" fill="none" xmlns="http://www.w3.org/2000/svg">
<path d="M100.5 43.66C97.5898 43.66 95.2197 41.36 95.2197 38.52C95.2197 35.69 97.5898 33.39 100.5 33.39C103.41 33.39 105.77 35.69 105.77 38.52C105.77 41.36 103.41 43.66 100.5 43.66Z" fill="#C2F1B7"/>
<path d="M73.0601 18.98C67.5101 18.98 63 14.73 63 9.48999C63 4.24999 67.5101 0 73.0601 0C78.6201 0 83.13 4.24999 83.13 9.48999C83.13 14.73 78.6201 18.98 73.0601 18.98Z" fill="#B1B2DD"/>
<path d="M37.4998 43.66C34.5898 43.66 32.2197 41.36 32.2197 38.52C32.2197 35.69 34.5898 33.39 37.4998 33.39C40.4098 33.39 42.7698 35.69 42.7698 38.52C42.7698 41.36 40.4098 43.66 37.4998 43.66Z" fill="#FF6A4D"/>
<path d="M10.0601 18.98C4.51006 18.98 0 14.73 0 9.48999C0 4.24999 4.51006 0 10.0601 0C15.6201 0 20.13 4.24999 20.13 9.48999C20.13 14.73 15.6201 18.98 10.0601 18.98Z" fill="#B1B2DD"/>
<path d="M100.5 107.66C97.5898 107.66 95.2197 105.36 95.2197 102.52C95.2197 99.69 97.5898 97.39 100.5 97.39C103.41 97.39 105.77 99.69 105.77 102.52C105.77 105.36 103.41 107.66 100.5 107.66Z" fill="#FF6A4D"/>
<path d="M73.0601 82.98C67.5101 82.98 63 78.73 63 73.49C63 68.25 67.5101 64 73.0601 64C78.6201 64 83.13 68.25 83.13 73.49C83.13 78.73 78.6201 82.98 73.0601 82.98Z" fill="#B1B2DD"/>
<path d="M37.4998 107.66C34.5898 107.66 32.2197 105.36 32.2197 102.52C32.2197 99.69 34.5898 97.39 37.4998 97.39C40.4098 97.39 42.7698 99.69 42.7698 102.52C42.7698 105.36 40.4098 107.66 37.4998 107.66Z" fill="#2E1A47"/>
</svg>
