<svg width="70" height="65" xmlns="http://www.w3.org/2000/svg" fill="none">

 <g>
  <title>Layer 1</title>
  <rect id="svg_1" fill="#FCEECC" rx="9.66055" height="64.4037" width="68.6973" y="0.05469" x="0.71582"/>
  <g id="svg_6">
   <path id="svg_5" fill="#EFAC00" d="m40.21787,45.54461l-15.65353,0c-1.44086,0 -2.60892,-1.1681 -2.60892,-2.609l0,-15.65347l2.60892,0l0,15.65347l15.65353,0l0,2.609zm5.2178,-5.2179l-15.65349,0c-1.44086,0 -2.60892,-1.168 -2.60892,-2.6089l0,-15.65351c0,-1.44087 1.16806,-2.60892 2.60892,-2.60892l15.65349,0c1.4409,0 2.6089,1.16805 2.6089,2.60892l0,15.65351c0,1.4409 -1.168,2.6089 -2.6089,2.6089zm-15.65349,-18.26241l0,15.65351l15.65349,0l0,-15.65351l-15.65349,0zm6.52229,12.47191l-4.8356,-4.8369l1.8445,-1.84451l2.9911,2.99241l5.6001,-5.60003l1.8445,1.84451l-7.4446,7.44322l0,0.0013z"/>
  </g>
 </g>
</svg>