<svg width="70" height="65" xmlns="http://www.w3.org/2000/svg" fill="none">

 <g>
  <title>Layer 1</title>
  <rect id="svg_1" fill="#FCEECC" rx="9.66055" height="64.4037" width="68.6973" y="0.05505" x="0.71582"/>
  <g id="svg_6">
   <path id="svg_5" fill="#EFAC00" d="m34.99998,19.90623c-6.95703,0 -12.59375,5.63672 -12.59375,12.59375c0,6.957 5.63672,12.5938 12.59375,12.5938c6.957,0 12.5938,-5.6368 12.5938,-12.5938c0,-6.95703 -5.6368,-12.59375 -12.5938,-12.59375zm0,22.74995c-5.61133,0 -10.15625,-4.5449 -10.15625,-10.1562c0,-5.61133 4.54492,-10.15625 10.15625,-10.15625c5.6113,0 10.1562,4.54492 10.1562,10.15625c0,5.6113 -4.5449,10.1562 -10.1562,10.1562zm3.1383,-5.3015l-4.3113,-3.1332c-0.1575,-0.1168 -0.2489,-0.2996 -0.2489,-0.4926l0,-8.33828c0,-0.33515 0.2742,-0.60937 0.6094,-0.60937l1.625,0c0.3352,0 0.6094,0.27422 0.6094,0.60937l0,7.19568l3.3922,2.468c0.2742,0.198 0.33,0.5789 0.132,0.8531l-0.9547,1.3153c-0.198,0.2691 -0.5789,0.33 -0.8531,0.132z"/>
  </g>
 </g>
</svg>