<svg width="29" height="28" viewBox="0 0 29 28" fill="none" xmlns="http://www.w3.org/2000/svg">
<path fill-rule="evenodd" clip-rule="evenodd" d="M28.233 13.7472C28.233 14.6747 28.1387 15.6009 27.9535 16.5038C27.7729 17.3851 27.5054 18.2504 27.155 19.0776C26.8126 19.8902 26.3879 20.6732 25.8917 21.4034C25.4029 22.1291 24.8397 22.8098 24.2211 23.4304C23.6012 24.0482 22.9191 24.6106 22.1948 25.1022C21.4632 25.5956 20.6801 26.0203 19.8682 26.3647C19.041 26.7138 18.1749 26.9813 17.2955 27.1618C16.3927 27.3477 15.4644 27.4427 14.5369 27.4427C13.6087 27.4427 12.6804 27.3477 11.7789 27.1618C10.8982 26.9813 10.0322 26.7138 9.20556 26.3647C8.3937 26.0203 7.60988 25.5956 6.87828 25.1022C6.15402 24.6106 5.47189 24.0482 4.85328 23.4304C4.23403 22.8098 3.67091 22.1291 3.18138 21.4034C2.68784 20.6732 2.26248 19.8901 1.91876 19.0776C1.56829 18.2504 1.30015 17.3851 1.11891 16.5038C0.93569 15.6009 0.842041 14.6747 0.842041 13.7472C0.842041 12.8191 0.935636 11.8909 1.11897 10.99C1.30021 10.1087 1.56834 9.24201 1.91881 8.41616C2.26253 7.60301 2.68789 6.81928 3.18143 6.089C3.67096 5.3628 4.23408 4.68333 4.85333 4.06208C5.47194 3.44415 6.15407 2.88315 6.87833 2.39231C7.60994 1.89675 8.39376 1.47217 9.20561 1.12708C10.0322 0.777267 10.8982 0.509148 11.779 0.329955C12.6805 0.145401 13.6087 0.0517578 14.5369 0.0517578C15.4645 0.0517578 16.3927 0.145401 17.2955 0.329955C18.1749 0.509201 19.041 0.777321 19.8683 1.12708C20.6801 1.47212 21.4632 1.89675 22.1948 2.39231C22.9191 2.88315 23.6013 3.44415 24.2212 4.06208C24.8398 4.68333 25.4029 5.3628 25.8917 6.089C26.3879 6.81928 26.8126 7.60306 27.155 8.41616C27.5054 9.24201 27.7729 10.1087 27.9535 10.99C28.1387 11.8909 28.233 12.8191 28.233 13.7472ZM9.54655 3.16867C6.28498 4.70877 3.85071 7.714 3.09166 11.3358C3.39999 11.3385 8.27391 11.4 13.8894 9.90805C11.8651 6.31165 9.70238 3.3767 9.54655 3.16867ZM14.8585 11.709C8.83633 13.5118 3.05756 13.3821 2.85027 13.3741C2.84689 13.4998 2.84088 13.6215 2.84088 13.7472C2.84088 16.7518 3.97442 19.4908 5.83759 21.5619C5.83357 21.5559 9.03429 15.8778 15.346 13.8369C15.4985 13.786 15.6536 13.7405 15.8074 13.6964C15.5139 13.0317 15.1935 12.3657 14.8585 11.709ZM22.261 4.96956C20.2019 3.15394 17.4981 2.05262 14.5368 2.05262C13.5865 2.05262 12.6643 2.16765 11.7809 2.38029C11.9561 2.61572 14.153 5.52998 16.1532 9.20255C20.5664 7.54816 22.2322 5.01234 22.261 4.96956ZM16.6047 15.6344C16.5786 15.643 16.5526 15.6504 16.5271 15.6598C9.62633 18.0654 7.37278 22.9133 7.34839 22.9662C9.33398 24.5103 11.8244 25.4419 14.5369 25.4419C16.1566 25.4419 17.6994 25.1121 19.1031 24.515C18.9299 23.4932 18.2505 19.9115 16.6047 15.6344ZM21.0726 23.4464C23.6988 21.6743 25.564 18.8603 26.0842 15.6009C25.8435 15.5233 22.5713 14.4874 18.7961 15.0927C20.3302 19.3083 20.9536 22.7416 21.0726 23.4464ZM17.0535 10.9453C17.3249 11.503 17.5878 12.0707 17.8305 12.6411C17.9168 12.8458 18.0011 13.0464 18.0833 13.247C22.1012 12.7414 26.0596 13.5921 26.2288 13.6268C26.2021 10.8543 25.2103 8.30979 23.5692 6.31771C23.5471 6.34907 21.6712 9.05943 17.0535 10.9453Z" fill="#2E1A47"/>
</svg>
