<svg width="29" height="29" viewBox="0 0 29 29" fill="none" xmlns="http://www.w3.org/2000/svg">
<path d="M14.411 0.828414C6.80924 0.824495 0.586401 7.02711 0.582461 14.6704C0.578899 21.5811 5.63458 27.3196 12.2407 28.3596L12.2457 18.6846L8.73504 18.6828L8.7371 14.6746L12.2477 14.6764L12.2493 11.6218C12.2511 8.15266 14.3115 6.24636 17.4766 6.24799C18.9831 6.24877 20.5586 6.51219 20.5586 6.51219L20.5569 9.92608L18.8154 9.92518C17.1015 9.9243 16.5619 10.9883 16.5614 12.0802L16.56 14.6786L20.4024 14.6806L19.7784 18.6885L16.558 18.6868L16.553 28.3618C19.8102 27.8491 22.7768 26.1889 24.9173 23.6807C27.0577 21.1726 28.231 17.9819 28.2253 14.6846C28.2293 7.04136 22.0128 0.832332 14.411 0.828414Z" fill="#2E1A47"/>
</svg>
