<svg width="205" height="79" viewBox="0 0 205 79" fill="none" xmlns="http://www.w3.org/2000/svg">
<path d="M12.8253 38.8612L19.7954 35.2785L24.9672 45.3225C27.5741 50.3898 26.5286 54.5928 21.6425 57.102C16.7564 59.6182 12.7347 58.0221 10.1278 52.9548L1.65215 36.4844C-0.954682 31.4171 0.0908412 27.2141 4.9769 24.7048C9.86297 22.1956 13.8847 23.7848 16.4916 28.8521L18.0738 31.9259L13.3689 34.3445L11.6264 30.9501C10.4624 28.6848 9.02655 28.3432 7.44433 29.1518C5.86211 29.9673 5.3045 31.3404 6.46851 33.5987L15.2648 50.7034C16.4288 52.9687 17.8438 53.2684 19.426 52.4529C21.0082 51.6374 21.5867 50.3131 20.4227 48.0478L17.4186 42.2138L15.1533 43.3778L12.8253 38.8612Z" fill="#ECEAE8"/>
<path d="M49.6831 45.1694C49.1046 44.3957 48.7352 43.9287 47.8221 41.1755L46.0587 35.8643C45.0132 32.7277 43.5703 31.9192 41.1517 32.7208L39.3185 33.3272L43.891 47.0862L38.5797 48.8497L27.3508 15.0515L35.3665 12.3889C40.8729 10.5627 44.0861 12.3331 45.8217 17.5468L46.7069 20.2024C47.8639 23.6805 47.4875 26.2664 45.4941 28.1623L45.5289 28.2599C48.554 28.4899 50.2547 30.7134 51.4257 34.2333L53.1612 39.4469C53.7049 41.0849 54.158 42.2768 55.1059 43.3572L49.6831 45.1694ZM34.2582 18.1253L37.7085 28.5038L39.7856 27.8138C41.7651 27.1586 42.6851 25.8831 41.786 23.1786L40.6777 19.8469C39.8762 17.4353 38.7052 16.6407 36.8163 17.268L34.2582 18.1253Z" fill="#ECEAE8"/>
<path d="M82.6522 38.0738L77.083 39.0008L75.0687 32.7835L68.2937 33.9126L68.3982 40.4436L63.331 41.287L63.1079 5.21657L71.1863 3.87134L82.6522 38.0738ZM68.2031 29.0266L73.5213 28.1413L67.9591 10.8066L67.8615 10.8206L68.2031 29.0266Z" fill="#ECEAE8"/>
<path d="M108.142 23.8686L108.211 28.6013C108.288 34.3029 105.486 37.5997 99.9937 37.6764C94.5012 37.7531 91.6017 34.5399 91.525 28.8383L91.2601 10.3186C91.1765 4.61707 93.9854 1.3202 99.4779 1.24353C104.97 1.16686 107.87 4.38009 107.947 10.0817L107.995 13.5388L102.705 13.6155L102.649 9.80285C102.614 7.25875 101.478 6.31082 99.701 6.33173C97.9236 6.35961 96.8153 7.3424 96.8502 9.8865L97.122 29.1171C97.1569 31.6612 98.293 32.5603 100.07 32.5394C101.848 32.5115 102.956 31.5845 102.921 29.0404L102.851 23.9522L108.142 23.8686Z" fill="#ECEAE8"/>
<path d="M122.646 2.58179L128.209 3.18819L124.34 38.5965L118.778 37.9901L122.646 2.58179Z" fill="#ECEAE8"/>
<path d="M145.53 21.4219L153.008 23.1714L151.844 28.1272L144.365 26.3777L141.989 36.5332L151.398 38.7357L150.234 43.6915L135.374 40.2064L143.501 5.53003L158.362 9.0151L157.198 13.9709L147.788 11.7683L145.53 21.4219Z" fill="#ECEAE8"/>
<path d="M170.629 18.6342L172.483 13.5669L177.551 15.4209L175.892 19.9585L171.654 24.4194L169.507 23.6318L172.644 19.3591L170.629 18.6342Z" fill="#ECEAE8"/>
<path d="M198.44 24.2518C203.291 26.7192 204.309 30.8943 201.73 35.9686L201.221 36.9653L196.502 34.5676L197.171 33.2502C198.329 30.9849 197.855 29.6606 196.265 28.8521C194.676 28.0435 193.331 28.4478 192.181 30.7131C191.003 33.0272 191.128 35.2576 192.941 39.7743C195.241 45.5734 195.22 48.8703 193.38 52.5017C190.794 57.5829 186.779 59.1931 181.879 56.6977C176.979 54.2024 175.92 50.0134 178.498 44.9322L179.488 42.9805L184.207 45.3783L183.05 47.6435C181.9 49.9088 182.478 51.2332 184.068 52.0417C185.657 52.8502 187.065 52.5435 188.222 50.2713C189.4 47.9572 189.274 45.7267 187.462 41.2101C185.162 35.411 185.183 32.1141 187.03 28.4826C189.616 23.4154 193.589 21.7843 198.44 24.2518Z" fill="#ECEAE8"/>
<path d="M14.7071 37.6493L21.6772 34.0666L26.8491 44.1106C29.4559 49.1779 28.4104 53.3808 23.5243 55.8901C18.6383 58.4063 14.6165 56.8102 12.0097 51.7429L3.53398 35.2724C0.927154 30.2052 1.97268 26.0022 6.85874 23.4929C11.7448 20.9837 15.7666 22.5729 18.3734 27.6401L19.9556 30.714L15.2508 33.1326L13.5082 29.7382C12.3442 27.4729 10.9084 27.1313 9.32616 27.9399C7.74394 28.7554 7.18634 30.1285 8.35035 32.3868L17.1536 49.4915C18.3176 51.7568 19.7326 52.0565 21.3148 51.241C22.897 50.4255 23.4755 49.1012 22.3115 46.8359L19.3074 41.0019L17.0421 42.1659L14.7071 37.6493Z" fill="#B6B6B6"/>
<path d="M51.5584 43.9497C50.9799 43.176 50.6104 42.709 49.6974 39.9558L47.9339 34.6446C46.8884 31.508 45.4456 30.6995 43.0269 31.501L41.1938 32.1074L45.7662 45.8665L40.455 47.6299L29.2261 13.8317L37.2417 11.1692C42.7481 9.34298 45.9614 11.1134 47.6969 16.3271L48.5821 18.9827C49.7392 22.4608 49.3628 25.0467 47.3693 26.9426L47.4042 27.0402C50.4292 27.2702 52.1299 29.4936 53.3009 33.0136L55.0365 38.2272C55.5802 39.8652 56.0332 41.0571 56.9812 42.1375L51.5584 43.9497ZM36.1404 16.9056L39.5907 27.2841L41.6678 26.5941C43.6473 25.9389 44.5673 24.6633 43.6682 21.9589L42.5599 18.6272C41.7584 16.2155 40.5804 15.4209 38.6985 16.0482L36.1404 16.9056Z" fill="#B6B6B6"/>
<path d="M84.5338 36.8614L78.9646 37.7884L76.9503 31.5711L70.1753 32.7002L70.2798 39.2312L65.2126 40.0746L64.9895 4.00417L73.0679 2.65894L84.5338 36.8614ZM70.0847 27.8142L75.4029 26.9289L69.8407 9.59422L69.7431 9.60816L70.0847 27.8142Z" fill="#B6B6B6"/>
<path d="M110.024 22.6562L110.093 27.3889C110.17 33.0905 107.368 36.3873 101.876 36.464C96.3831 36.5407 93.4835 33.3275 93.4068 27.6259L93.142 9.10624C93.0583 3.40467 95.8673 0.107798 101.36 0.0311266C106.852 -0.0455449 109.752 3.16769 109.828 8.86926L109.877 12.3264L104.587 12.4031L104.531 8.58348C104.496 6.03938 103.36 5.09144 101.583 5.11235C99.8054 5.14024 98.6971 6.12302 98.732 8.66712L99.0038 27.8977C99.0387 30.4418 100.175 31.341 101.952 31.3201C103.73 31.2922 104.838 30.3651 104.803 27.821L104.733 22.7329L110.024 22.6562Z" fill="#B6B6B6"/>
<path d="M124.528 1.36938L130.091 1.97579L126.222 37.3841L120.66 36.7777L124.528 1.36938Z" fill="#B6B6B6"/>
<path d="M147.412 20.2096L154.891 21.9661L153.727 26.9219L146.248 25.1654L143.864 35.3209L153.273 37.5304L152.109 42.4862L137.249 39.0011L145.383 4.32471L160.244 7.80977L159.08 12.7655L149.67 10.556L147.412 20.2096Z" fill="#B6B6B6"/>
<path d="M172.511 17.4147L174.365 12.3474L179.432 14.2015L177.773 18.739L173.535 23.1999L171.389 22.4123L174.525 18.1396L172.511 17.4147Z" fill="#B6B6B6"/>
<path d="M200.336 23.0535C205.187 25.521 206.205 29.6961 203.619 34.7703L203.11 35.767L198.391 33.3693L199.06 32.052C200.21 29.7867 199.743 28.4624 198.154 27.6538C196.565 26.8453 195.22 27.2495 194.07 29.5148C192.892 31.8289 193.017 34.0594 194.822 38.576C197.123 44.3752 197.102 47.672 195.255 51.2965C192.669 56.3777 188.654 57.9878 183.754 55.4925C178.854 52.9972 177.794 48.8082 180.38 43.7269L181.37 41.7753L186.089 44.173L184.932 46.4383C183.782 48.7036 184.36 50.0279 185.949 50.8365C187.539 51.645 188.947 51.3383 190.104 49.0661C191.282 46.752 191.156 44.5215 189.351 40.0049C187.051 34.2127 187.072 30.9089 188.919 27.2844C191.512 22.2171 195.478 20.5861 200.336 23.0535Z" fill="#B6B6B6"/>
<path d="M53.6352 69.9695H34.5022V72.0605H53.6352V69.9695Z" fill="#B6B6B6"/>
<path d="M170.908 69.9695H151.775V72.0605H170.908V69.9695Z" fill="#B6B6B6"/>
<path d="M61.0518 68.7636H61.017V78.1593H59.1838V65.1809H61.7419L63.7981 72.9456H63.8329V65.1809H65.6521V78.1593H63.5541L61.0518 68.7636Z" fill="#B6B6B6"/>
<path d="M72.4895 70.6525H75.2915V72.5065H72.4895V76.3052H76.0094V78.1593H70.4473V65.1809H76.0094V67.035H72.4895V70.6525Z" fill="#B6B6B6"/>
<path d="M87.4058 65.1875L85.273 71.4885L87.5522 78.1589H85.3984L83.7465 73.0219H83.7117L82.0458 78.1589H80.136L82.4152 71.4885L80.2824 65.1875H82.3943L83.9138 69.969H83.9487L85.503 65.1875H87.4058Z" fill="#B6B6B6"/>
<path d="M91.3229 65.1875H97.6239V67.0415H95.491V78.1659H93.4488V67.0415H91.3159V65.1875H91.3229Z" fill="#B6B6B6"/>
<path d="M108.058 65.1875H111.286C113.328 65.1875 114.324 66.3167 114.324 68.3938V74.9596C114.324 77.0367 113.321 78.1659 111.286 78.1659H108.058V65.1875ZM110.101 67.0415V76.3118H111.251C111.899 76.3118 112.289 75.9773 112.289 75.0502V68.3032C112.289 67.3761 111.899 67.0415 111.251 67.0415H110.101Z" fill="#B6B6B6"/>
<path d="M118.792 68.2964C118.792 66.2193 119.887 65.0344 121.887 65.0344C123.888 65.0344 124.982 66.2193 124.982 68.2964V75.0435C124.982 77.1206 123.888 78.3056 121.887 78.3056C119.887 78.3056 118.792 77.1206 118.792 75.0435V68.2964ZM120.828 75.176C120.828 76.103 121.232 76.4515 121.887 76.4515C122.542 76.4515 122.947 76.096 122.947 75.176V68.171C122.947 67.244 122.542 66.8954 121.887 66.8954C121.232 66.8954 120.828 67.2509 120.828 68.171V75.176Z" fill="#B6B6B6"/>
<path d="M129.47 68.2964C129.47 66.2193 130.565 65.0344 132.565 65.0344C134.566 65.0344 135.66 66.2193 135.66 68.2964V75.0435C135.66 77.1206 134.566 78.3056 132.565 78.3056C130.565 78.3056 129.47 77.1206 129.47 75.0435V68.2964ZM131.506 75.176C131.506 76.103 131.917 76.4515 132.565 76.4515C133.213 76.4515 133.625 76.096 133.625 75.176V68.171C133.625 67.244 133.213 66.8954 132.565 66.8954C131.917 66.8954 131.506 67.2509 131.506 68.171V75.176Z" fill="#B6B6B6"/>
<path d="M144.575 78.1594C144.463 77.8249 144.387 77.6227 144.387 76.5633V74.521C144.387 73.3152 143.975 72.8691 143.048 72.8691H142.344V78.1525H140.302V65.1741H143.376C145.488 65.1741 146.401 66.1569 146.401 68.1573V69.1749C146.401 70.5132 145.976 71.3636 145.07 71.7887V71.8236C146.087 72.2488 146.422 73.2106 146.422 74.5698V76.5702C146.422 77.1976 146.443 77.6646 146.645 78.1455H144.575V78.1594ZM142.351 67.0421V71.029H143.146C143.906 71.029 144.373 70.6944 144.373 69.6559V68.3803C144.373 67.4533 144.059 67.0421 143.334 67.0421H142.351Z" fill="#B6B6B6"/>
</svg>
