<svg width="70" height="66" viewBox="0 0 70 66" fill="none" xmlns="http://www.w3.org/2000/svg">
<rect x="0.71582" y="0.963257" width="68.6973" height="64.4037" rx="9.66055" fill="#E6FCE1"/>
<path d="M43.4123 47.156C40.3333 47.1486 37.8307 44.6704 37.7931 41.5916V38.7272H32.1739V41.5649C32.1584 44.6646 29.6358 47.1663 26.5361 47.156C23.4363 47.1457 20.9304 44.6272 20.9356 41.5275C20.9407 38.4277 23.455 35.9176 26.5547 35.9176H29.3643V30.2984H26.5547C23.455 30.2983 20.9407 27.7882 20.9356 24.6885C20.9304 21.5888 23.4363 19.0703 26.5361 19.06C29.6358 19.0497 32.1584 21.5514 32.1739 24.6511V27.4888H37.7931V24.6792C37.7931 21.5758 40.3089 19.06 43.4123 19.06C46.5157 19.06 49.0315 21.5758 49.0315 24.6792C49.0315 27.7826 46.5157 30.2984 43.4123 30.2984H40.6027V35.9176H43.4123C46.5157 35.9176 49.0315 38.4334 49.0315 41.5368C49.0315 44.6402 46.5157 47.156 43.4123 47.156ZM40.6027 38.7272V41.5368C40.6027 43.0885 41.8606 44.3464 43.4123 44.3464C44.964 44.3464 46.2219 43.0885 46.2219 41.5368C46.2219 39.9851 44.964 38.7272 43.4123 38.7272H40.6027ZM26.5547 38.7272C25.003 38.7272 23.7451 39.9851 23.7451 41.5368C23.7451 43.0885 25.003 44.3464 26.5547 44.3464C27.3023 44.3544 28.0215 44.0609 28.5502 43.5323C29.0788 43.0036 29.3723 42.2844 29.3643 41.5368V38.7272H26.5547ZM32.1739 30.2984V35.9176H37.7931V30.2984H32.1739ZM43.4123 21.8696C42.6647 21.8616 41.9455 22.155 41.4168 22.6837C40.8882 23.2123 40.5947 23.9316 40.6027 24.6792V27.4888H43.4123C44.1599 27.4968 44.8792 27.2033 45.4078 26.6747C45.9364 26.146 46.2299 25.4267 46.2219 24.6792C46.2299 23.9316 45.9364 23.2123 45.4078 22.6837C44.8792 22.155 44.1599 21.8616 43.4123 21.8696ZM26.5547 21.8696C25.8071 21.8616 25.0878 22.155 24.5592 22.6837C24.0306 23.2123 23.7371 23.9316 23.7451 24.6792C23.7371 25.4267 24.0306 26.146 24.5592 26.6747C25.0878 27.2033 25.8071 27.4968 26.5547 27.4888H29.3643V24.6792C29.3723 23.9316 29.0788 23.2123 28.5502 22.6837C28.0215 22.155 27.3023 21.8616 26.5547 21.8696Z" fill="#82DB6D"/>
</svg>
