<svg width="28" height="28" viewBox="0 0 28 28" fill="none" xmlns="http://www.w3.org/2000/svg">
<path fill-rule="evenodd" clip-rule="evenodd" d="M13.7487 0.0517578C10.0292 0.0517578 9.56246 0.0680212 8.10159 0.134501C6.64358 0.201267 5.64837 0.432092 4.77756 0.770769C3.87678 1.12057 3.11268 1.5885 2.35144 2.35003C1.58962 3.11127 1.12169 3.87536 0.770736 4.77584C0.431199 5.64692 0.200086 6.64241 0.134461 8.09984C0.0691215 9.56069 0.052002 10.0278 0.052002 13.7472C0.052002 17.4667 0.0685508 17.932 0.134746 19.3929C0.201798 20.8509 0.432626 21.8461 0.771021 22.7169C1.12111 23.6176 1.58905 24.3817 2.35058 25.143C3.11154 25.9048 3.87564 26.3739 4.77584 26.7237C5.64723 27.0623 6.64272 27.2932 8.10045 27.3599C9.56131 27.4264 10.0278 27.4427 13.747 27.4427C17.4668 27.4427 17.9322 27.4264 19.393 27.3599C20.8511 27.2932 21.8474 27.0623 22.7188 26.7237C23.6193 26.3739 24.3822 25.9048 25.1432 25.143C25.905 24.3817 26.373 23.6176 26.7239 22.7172C27.0606 21.8461 27.2917 20.8506 27.3602 19.3932C27.4258 17.9323 27.4429 17.4667 27.4429 13.7472C27.4429 10.0278 27.4258 9.56097 27.3602 8.10012C27.2917 6.64213 27.0606 5.64692 26.7239 4.77612C26.373 3.87536 25.905 3.11127 25.1432 2.35003C24.3814 1.58822 23.6196 1.12029 22.7179 0.770769C21.8448 0.432092 20.8491 0.201267 19.391 0.134501C17.9302 0.0680212 17.4651 0.0517578 13.7445 0.0517578H13.7487ZM12.5201 2.51976C12.8847 2.51918 13.2916 2.51976 13.7487 2.51976C17.4054 2.51976 17.8388 2.53288 19.2829 2.5985C20.6182 2.65956 21.3429 2.88268 21.8257 3.07014C22.4648 3.31837 22.9205 3.61511 23.3995 4.09445C23.8789 4.57379 24.1756 5.0303 24.4244 5.66943C24.6119 6.15162 24.8353 6.87634 24.896 8.21165C24.9617 9.65538 24.9759 10.0891 24.9759 13.744C24.9759 17.399 24.9617 17.8327 24.896 19.2764C24.835 20.6117 24.6119 21.3365 24.4244 21.8187C24.1762 22.4578 23.8789 22.9129 23.3995 23.3919C22.9202 23.8713 22.4651 24.168 21.8257 24.4162C21.3435 24.6045 20.6182 24.8271 19.2829 24.8882C17.8391 24.9538 17.4054 24.968 13.7487 24.968C10.0917 24.968 9.65827 24.9538 8.21452 24.8882C6.8792 24.8265 6.15448 24.6034 5.67142 24.4159C5.03229 24.1677 4.57577 23.871 4.09643 23.3916C3.61708 22.9123 3.32034 22.4569 3.07154 21.8175C2.88408 21.3353 2.66067 20.6106 2.5999 19.2753C2.53427 17.8316 2.52115 17.3979 2.52115 13.7406C2.52115 10.0834 2.53427 9.65195 2.5999 8.20822C2.66096 6.87291 2.88408 6.1482 3.07154 5.66543C3.31977 5.02631 3.61708 4.56979 4.09643 4.09045C4.57577 3.61111 5.03229 3.31438 5.67142 3.06558C6.15419 2.87726 6.8792 2.65471 8.21452 2.59337C9.47794 2.5363 9.96756 2.51918 12.5201 2.51633V2.51976ZM21.0593 4.79378C20.152 4.79378 19.4158 5.52905 19.4158 6.43666C19.4158 7.34399 20.152 8.08012 21.0593 8.08012C21.9666 8.08012 22.7028 7.34399 22.7028 6.43666C22.7028 5.52934 21.9666 4.79378 21.0593 4.79378ZM13.7488 6.71399C9.86464 6.71399 6.71551 9.86309 6.71551 13.7472C6.71551 17.6313 9.86464 20.7789 13.7488 20.7789C17.6329 20.7789 20.7809 17.6313 20.7809 13.7472C20.7809 9.86309 17.6329 6.71399 13.7488 6.71399ZM13.7487 9.18203C16.2698 9.18203 18.3139 11.2258 18.3139 13.7472C18.3139 16.2683 16.2698 18.3123 13.7487 18.3123C11.2273 18.3123 9.18351 16.2683 9.18351 13.7472C9.18351 11.2258 11.2273 9.18203 13.7487 9.18203Z" fill="#2E1A47"/>
</svg>
