<svg width="73" height="68" viewBox="0 0 73 68" fill="none" xmlns="http://www.w3.org/2000/svg">
<rect x="0.774902" y="0.685303" width="71.4395" height="66.9745" rx="10.0462" fill="#E6FCE1"/>
<path d="M48.5456 16.2839H39.6694C38.4864 16.2839 37.5241 17.2465 37.5241 18.4294V25.0864C37.5241 25.1243 37.4883 25.1602 37.4505 25.1602H28.5742C27.3912 25.1602 26.4289 26.1226 26.4289 27.3055V33.9625C26.4289 34.0004 26.393 34.0362 26.3552 34.0362H17.4791C16.2961 34.0363 15.3337 34.9987 15.3337 36.1817V45.0578C15.3337 46.2407 16.2961 47.2031 17.4791 47.2031H46.8814C48.9819 47.2031 50.691 45.4942 50.691 43.3935V18.4294C50.691 17.2464 49.7284 16.2839 48.5456 16.2839ZM45.3853 35.5533L42.7242 38.1475L43.3427 41.7538C43.3597 41.8283 43.3686 41.9058 43.3686 41.9853C43.3686 42.5566 42.9062 43.0199 42.3352 43.0212C42.1705 43.019 42.0022 42.9824 41.8494 42.9022L38.56 41.1727L35.2704 42.9022C35.1189 42.9818 34.9533 43.0212 34.7886 43.0212C34.5737 43.0212 34.3601 42.9545 34.1796 42.8233C33.8606 42.5916 33.7008 42.1988 33.7674 41.8102L34.3958 38.1475L31.7346 35.5534C31.4523 35.2782 31.3506 34.8666 31.4725 34.4915C31.5943 34.1165 31.9186 33.8432 32.3087 33.7866L35.9863 33.2523L37.6311 29.9197C37.8056 29.5661 38.1657 29.3423 38.56 29.3423C38.9542 29.3423 39.3144 29.5661 39.4889 29.9197L41.1335 33.2523L44.8111 33.7866C45.2013 33.8432 45.5254 34.1165 45.6473 34.4915C45.7691 34.8664 45.6676 35.2781 45.3853 35.5533Z" fill="#82DB6D"/>
</svg>
