<svg width="205" height="56" viewBox="0 0 205 56" fill="none" xmlns="http://www.w3.org/2000/svg">
<path d="M200.872 14.8909V15.5415H200.105V17.9628H199.412V15.5415H198.645V14.8909H200.872Z" fill="#2E1A47"/>
<path d="M203.84 14.8906H204.722V17.9625H204.029V16.0711L203.235 17.9625H202.763L201.969 16.0778V17.9625H201.276V14.8906H202.171L203.006 16.8827L203.84 14.8906Z" fill="#2E1A47"/>
<path d="M51.6182 16.1381C51.6182 15.9637 51.6249 15.8028 51.6316 15.6619C51.6384 15.5211 51.6855 15.3936 51.7595 15.293C51.8335 15.1924 51.9547 15.1119 52.123 15.0516C52.2845 14.9979 52.5201 14.9644 52.8162 14.9644H56.498C56.6931 14.9644 56.8547 14.9979 56.9826 15.065C57.1105 15.132 57.2114 15.2192 57.2922 15.3198C57.3662 15.4204 57.4201 15.5345 57.447 15.6485C57.4739 15.7692 57.4874 15.8765 57.4874 15.9771L57.4941 27.3325L63.0335 21.1887C63.3027 20.8936 63.6191 20.746 63.9893 20.746H68.7143C69.2796 20.746 69.5623 20.9673 69.5623 21.4033C69.5623 21.5173 69.5421 21.6112 69.5085 21.6783C69.4748 21.7521 69.4008 21.8527 69.2864 21.9868L62.9595 28.6538L70.9287 38.8421H70.895C71.0296 38.9763 71.1239 39.1104 71.1777 39.2513C71.2316 39.3921 71.2652 39.5129 71.2652 39.6269C71.2652 39.8616 71.2046 40.0226 71.07 40.1098C70.9421 40.197 70.7469 40.2373 70.4912 40.2373H65.2883C65.1133 40.2373 64.9518 40.1702 64.797 40.036C64.6422 39.9019 64.4739 39.7007 64.2854 39.4391L59.2441 32.3361L57.5345 34.1001V39.0568C57.5345 39.1373 57.521 39.2446 57.4941 39.3787C57.4672 39.5129 57.4201 39.6403 57.3393 39.7677C57.2653 39.8952 57.1576 40.0025 57.023 40.0964C56.8883 40.1903 56.7133 40.2373 56.498 40.2373H52.6345C52.4528 40.2373 52.2912 40.1903 52.1566 40.0897C52.022 39.9958 51.921 39.8818 51.8403 39.761C51.7662 39.6403 51.7057 39.5263 51.672 39.419C51.6384 39.3117 51.6182 39.2446 51.6182 39.2245V16.1381Z" fill="#2E1A47"/>
<path d="M73.7823 21.0208C73.9169 20.9068 74.0582 20.8397 74.2063 20.8062C74.3544 20.7726 74.4957 20.7592 74.6303 20.7592H76.9592C77.1409 20.7592 77.3024 20.7928 77.4371 20.8598C77.5717 20.9269 77.6861 21.0141 77.7736 21.1281C77.8678 21.2421 77.9419 21.3696 77.9957 21.5104C78.0496 21.6513 78.1034 21.7988 78.1573 21.9531L78.4803 23.3013C78.6351 22.986 78.8842 22.6574 79.2274 22.322C79.5707 21.9866 79.9947 21.6781 80.5063 21.4031C81.0178 21.1281 81.6034 20.9001 82.2697 20.719C82.9361 20.5379 83.6832 20.4507 84.5044 20.4507C85.6755 20.4507 86.7188 20.672 87.6409 21.1214C88.563 21.5708 89.3438 22.1812 89.9832 22.9592C90.6226 23.7372 91.1139 24.6427 91.4505 25.6756C91.787 26.7152 91.9553 27.8219 91.9553 28.9957L91.962 39.0499C91.962 39.4389 91.8745 39.734 91.7063 39.9352C91.538 40.1364 91.2688 40.2371 90.8986 40.2371H87.338C86.8938 40.2371 86.5909 40.1633 86.4293 40.0157C86.2678 39.8682 86.1803 39.5797 86.1803 39.1505L86.1736 29.1567C86.1736 28.714 86.0726 28.2982 85.8707 27.9091C85.6688 27.5134 85.4063 27.1646 85.0765 26.8628C84.7467 26.561 84.3765 26.3262 83.9592 26.1518C83.5419 25.9775 83.1178 25.8903 82.687 25.8903C82.3169 25.8903 81.9399 25.9707 81.5563 26.1384C81.1726 26.2994 80.8159 26.5274 80.4928 26.8226C80.1697 27.111 79.9005 27.4598 79.6784 27.8488C79.4563 28.2445 79.3351 28.6671 79.3015 29.1299L79.3082 39.1035C79.3082 39.2779 79.2746 39.4523 79.2073 39.6267C79.1399 39.8011 79.039 39.9352 78.9044 40.0291C78.7698 40.1096 78.6419 40.17 78.5274 40.1968C78.4063 40.2303 78.2717 40.2438 78.1169 40.2438H74.6371C74.1928 40.2438 73.8765 40.1364 73.6813 39.9218C73.4861 39.7072 73.3852 39.4188 73.3852 39.0633L73.3784 21.8994C73.3784 21.7049 73.4188 21.5238 73.5063 21.3629C73.5938 21.2019 73.715 21.0745 73.8698 20.9806L73.7823 21.0208Z" fill="#2E1A47"/>
<path d="M114.463 26.5141C113.938 25.2934 113.211 24.2269 112.303 23.3215C111.394 22.416 110.324 21.705 109.099 21.1886C107.867 20.6721 106.562 20.4172 105.162 20.4172C104.219 20.4172 103.311 20.538 102.442 20.7727C101.574 21.0142 100.766 21.3428 100.019 21.7721C99.2654 22.2014 98.5923 22.7245 97.9798 23.3282C97.3673 23.9385 96.8423 24.616 96.4115 25.3538C95.974 26.0983 95.6375 26.9031 95.3952 27.7684C95.1529 28.6403 95.0317 29.5458 95.0317 30.4848C95.0317 31.4305 95.1529 32.3293 95.3952 33.1945C95.6375 34.0598 95.9808 34.8646 96.4115 35.6091C96.849 36.3603 97.374 37.0378 97.9865 37.6414C98.599 38.2518 99.2788 38.775 100.026 39.2042C100.78 39.6402 101.587 39.9756 102.449 40.2103C103.317 40.4451 104.226 40.5591 105.168 40.5591C106.104 40.5591 106.999 40.4451 107.854 40.2036C108.715 39.9688 109.516 39.6335 110.263 39.1975C111.017 38.7615 111.69 38.2384 112.303 37.628C112.915 37.0244 113.44 36.3402 113.871 35.5957C114.309 34.8512 114.645 34.0464 114.887 33.1811C115.13 32.3159 115.251 31.4171 115.251 30.4714C115.258 29.0629 114.995 27.7415 114.463 26.5141ZM105.155 35.4012C102.436 35.4012 100.235 33.2079 100.235 30.4982C100.235 28.2982 101.688 26.4336 103.694 25.8099C103.768 25.7897 103.842 25.7629 103.916 25.7428C103.997 25.7227 104.071 25.7025 104.152 25.6891C104.381 25.6355 104.616 25.6086 104.865 25.5952C104.96 25.5885 105.047 25.5885 105.141 25.5885C105.31 25.5885 105.478 25.5952 105.646 25.6153C108.123 25.8635 110.062 27.9495 110.068 30.4915C110.075 33.2012 107.874 35.3945 105.155 35.4012Z" fill="#2E1A47"/>
<path d="M116.166 22.2413C115.957 21.8187 115.924 21.4632 116.052 21.1681C116.18 20.873 116.482 20.7254 116.967 20.7254H120.911C121.181 20.7254 121.409 20.7992 121.611 20.9401C121.813 21.0809 121.955 21.2889 122.035 21.5504C122.21 22.0937 122.406 22.6974 122.614 23.3681C122.823 24.0388 123.045 24.723 123.281 25.4138C123.509 26.1114 123.738 26.8022 123.967 27.4863C124.196 28.1705 124.405 28.801 124.593 29.3845C124.781 29.9613 124.95 30.4644 125.105 30.8936C125.253 31.3229 125.367 31.6314 125.434 31.8125L128.692 21.5437C128.827 21.2151 128.975 20.9937 129.143 20.8864C129.311 20.7724 129.554 20.7187 129.856 20.7187H133.505C133.801 20.7187 134.03 20.7523 134.184 20.8261C134.339 20.8998 134.44 20.9937 134.494 21.1145C134.548 21.2352 134.555 21.376 134.528 21.537C134.494 21.698 134.447 21.859 134.373 22.0334L132.677 26.1583C132.751 26.3327 132.885 26.6278 133.094 27.0437C133.303 27.4595 133.531 27.929 133.794 28.4522C134.056 28.9821 134.326 29.5321 134.595 30.1089C134.864 30.6857 135.093 31.229 135.281 31.7253L139.051 21.5303C139.185 21.2017 139.32 20.9803 139.461 20.873C139.603 20.759 139.805 20.7053 140.087 20.7053H143.493C143.984 20.7053 144.328 20.7992 144.509 20.9803C144.691 21.1614 144.704 21.5102 144.543 22.0266L137.328 39.5393C137.233 39.7204 137.092 39.8813 136.904 40.0088C136.715 40.1362 136.439 40.2033 136.082 40.2033H134.467C134.07 40.2033 133.774 40.1429 133.592 40.0088C133.41 39.8813 133.255 39.7136 133.148 39.5124L130.28 32.5436L127.467 39.546C127.353 39.7271 127.218 39.888 127.07 40.0155C126.915 40.1429 126.686 40.21 126.377 40.21H124.546C124.135 40.21 123.846 40.1496 123.678 40.0356C123.509 39.9216 123.381 39.7539 123.301 39.5527L116.166 22.2413Z" fill="#2E1A47"/>
<path d="M166.647 26.4878C166.169 25.2671 165.503 24.2007 164.661 23.2952C163.813 22.3897 162.804 21.6787 161.626 21.1623C160.448 20.6458 159.162 20.391 157.769 20.391C157.204 20.391 156.692 20.4446 156.228 20.5452C155.763 20.6458 155.339 20.7934 154.956 20.9678C154.572 21.1489 154.215 21.3702 153.886 21.6184C153.556 21.8733 153.253 22.155 152.963 22.4635L152.957 16.0782C152.957 15.7495 152.842 15.4745 152.62 15.2465C152.391 15.0252 152.082 14.9111 151.698 14.9111H148.205C148.07 14.9111 147.936 14.9447 147.794 14.9983C147.653 15.0587 147.532 15.1392 147.424 15.2331C147.316 15.3337 147.229 15.4611 147.162 15.602C147.094 15.7495 147.061 15.9038 147.061 16.0782L147.074 39.0035C147.074 39.795 147.485 40.184 148.306 40.184H151.355C151.55 40.184 151.705 40.1639 151.819 40.1102C151.934 40.0633 152.028 39.9895 152.102 39.8889C152.176 39.795 152.25 39.6676 152.311 39.52C152.371 39.3724 152.452 39.2048 152.539 39.0035L152.815 38.2658C153.091 38.5407 153.408 38.8157 153.764 39.084C154.121 39.359 154.505 39.6005 154.929 39.8151C155.346 40.0298 155.797 40.2041 156.275 40.3383C156.753 40.4724 157.251 40.5395 157.776 40.5395C159.176 40.5395 160.461 40.2779 161.633 39.7548C162.804 39.2316 163.82 38.5206 164.668 37.6152C165.516 36.7097 166.176 35.6432 166.654 34.4158C167.132 33.1884 167.367 31.867 167.367 30.4585C167.361 29.0366 167.125 27.7086 166.647 26.4878ZM157.453 35.3213C156.686 35.3213 155.965 35.1469 155.319 34.8384C155.245 34.8048 155.178 34.7713 155.104 34.731C154.7 34.5231 154.336 34.2615 154.007 33.9463C153.576 33.5304 153.226 33.0475 152.963 32.4841C152.701 31.9274 152.553 31.317 152.526 30.6732V30.4183C152.526 30.3512 152.526 30.2841 152.533 30.2171C152.539 30.1366 152.539 30.0561 152.546 29.9756C152.768 27.4738 154.875 25.5153 157.439 25.5153C160.159 25.5153 162.36 27.7086 162.36 30.4183C162.373 33.128 160.172 35.3213 157.453 35.3213Z" fill="#2E1A47"/>
<path d="M170.45 21.8864C170.45 21.5577 170.544 21.276 170.726 21.0413C170.907 20.8065 171.197 20.6858 171.587 20.6858H175.114C175.235 20.6858 175.37 20.7126 175.518 20.773C175.659 20.8266 175.794 20.9138 175.922 21.0212C176.043 21.1285 176.151 21.2559 176.238 21.3968C176.326 21.5376 176.366 21.7053 176.373 21.8864L176.379 38.9966C176.379 39.3856 176.272 39.6807 176.056 39.8819C175.841 40.0831 175.531 40.1837 175.134 40.1837H171.607C170.847 40.1837 170.47 39.788 170.47 39.0033L170.45 21.8864Z" fill="#2E1A47"/>
<path d="M196.457 37.8363C195.555 38.668 194.539 39.3119 193.408 39.7814C192.278 40.2442 191.086 40.4789 189.821 40.4789C188.414 40.4789 187.081 40.224 185.829 39.7143C184.578 39.2045 183.48 38.4936 182.531 37.5881C181.589 36.6826 180.835 35.6162 180.283 34.3887C179.731 33.1613 179.449 31.8266 179.449 30.3845C179.449 29.4857 179.556 28.6138 179.779 27.7687C180.001 26.9236 180.31 26.1321 180.714 25.3943C181.118 24.6565 181.609 23.9791 182.188 23.362C182.767 22.745 183.42 22.2151 184.133 21.7724C184.854 21.3297 185.634 20.9877 186.476 20.7395C187.317 20.4913 188.205 20.3706 189.141 20.3706C189.996 20.3706 190.817 20.4846 191.618 20.706C192.419 20.934 193.173 21.2493 193.873 21.6584C194.573 22.0675 195.219 22.5572 195.804 23.134C196.39 23.7041 196.895 24.3346 197.312 25.012C197.736 25.6894 198.059 26.4205 198.288 27.1919C198.517 27.9632 198.638 28.7614 198.638 29.5796C198.638 30.1095 198.631 30.5455 198.618 30.8809C198.604 31.2162 198.524 31.4845 198.382 31.6857C198.241 31.8869 197.999 32.0211 197.669 32.1016C197.332 32.1754 196.848 32.2156 196.202 32.2156L185.116 32.2223C185.217 32.8796 185.426 33.4229 185.742 33.8656C186.058 34.3083 186.415 34.657 186.826 34.9186C187.236 35.1802 187.674 35.368 188.138 35.4753C188.603 35.5893 189.033 35.643 189.451 35.643C189.821 35.643 190.198 35.6028 190.588 35.529C190.979 35.4552 191.355 35.3479 191.719 35.2204C192.082 35.093 192.419 34.9454 192.722 34.7778C193.025 34.6101 193.267 34.429 193.455 34.2479C193.617 34.1137 193.758 34.0131 193.879 33.9461C194.001 33.879 194.122 33.8455 194.256 33.8455C194.391 33.8455 194.526 33.8924 194.667 33.9863C194.808 34.0802 194.963 34.2144 195.138 34.382L196.774 36.2198C196.888 36.354 196.955 36.4747 196.989 36.582C197.023 36.6893 197.036 36.7966 197.036 36.9107C197.036 37.1186 196.982 37.293 196.868 37.4405C196.747 37.5948 196.612 37.7222 196.457 37.8363ZM189.04 25.059C188.643 25.059 188.253 25.1395 187.876 25.3004C187.499 25.4614 187.149 25.6693 186.819 25.9376C186.489 26.2059 186.193 26.5077 185.937 26.8431C185.675 27.1785 185.459 27.5205 185.298 27.8693L193.173 27.8626C192.957 27.4669 192.722 27.098 192.473 26.7559C192.224 26.4205 191.934 26.1187 191.611 25.8638C191.288 25.609 190.918 25.4077 190.501 25.2669C190.083 25.126 189.599 25.059 189.04 25.059Z" fill="#2E1A47"/>
<path d="M171.823 11.7786C174.36 11.7786 176.413 13.8243 176.413 16.3462C176.413 17.1309 175.78 17.7614 174.993 17.7614H171.823C171.035 17.7614 170.402 17.1309 170.402 16.3462V13.1871C170.402 12.4158 171.035 11.7786 171.823 11.7786Z" fill="#2E1A47"/>
<path d="M36.7029 12.9047C36.7029 15.6413 34.6567 17.9016 32.0115 18.2504H23.726C20.7375 18.2504 18.3145 15.8358 18.3145 12.8578V5.39262C18.3145 2.54205 20.5356 0.207925 23.3423 0.0134145C23.3423 0.0134145 23.3423 0.0134145 23.3491 0.0134145C23.4702 0.00670724 23.5981 0 23.726 0C23.8269 0 23.9212 0 24.0221 0.00670724C24.0423 0.00670724 24.0625 0.00670724 24.0827 0.0134145C24.1971 0.0201217 24.3183 0.0335362 24.4327 0.0469507C24.4394 0.0469507 24.4394 0.0469507 24.4394 0.0469507C30.7865 0.757918 35.8346 5.7414 36.6288 12.0395C36.6625 12.2474 36.6827 12.4621 36.6961 12.6767C36.6961 12.7572 36.7029 12.831 36.7029 12.9047Z" fill="#B1B2DD"/>
<path d="M12.95 18.3174C15.6961 18.3174 17.9644 20.3564 18.3144 22.9923V31.2489C18.3144 34.227 15.8913 36.6416 12.9028 36.6416H5.41152C2.55095 36.6416 0.208653 34.4282 0.0134615 31.6313C0.0134615 31.6313 0.0134615 31.6313 0.0134615 31.6246C0.00673075 31.5038 0 31.3764 0 31.2489C0 31.1483 0 31.0544 0.00673075 30.9538C0.00673075 30.9337 0.00673075 30.9136 0.0134615 30.8935C0.0201922 30.7794 0.0336537 30.6587 0.0471152 30.5447C0.0471152 30.538 0.0471152 30.538 0.0471152 30.538C0.760575 24.213 5.76152 19.1826 12.0817 18.3912C12.2903 18.3576 12.5057 18.3375 12.7211 18.3241C12.8019 18.3241 12.8759 18.3174 12.95 18.3174Z" fill="#FF6A4D"/>
<path d="M23.7594 55.0332C21.0133 55.0332 18.745 52.9942 18.395 50.3582V42.1016C18.395 39.1236 20.8181 36.709 23.8065 36.709H31.2979C34.1584 36.709 36.5007 38.9224 36.6959 41.7193C36.6959 41.7193 36.6959 41.7193 36.6959 41.726C36.7094 41.8534 36.7094 41.9809 36.7094 42.1083C36.7094 42.2089 36.7094 42.3028 36.7027 42.4034C36.7027 42.4236 36.7027 42.4437 36.6959 42.4638C36.6892 42.5778 36.6757 42.6986 36.6623 42.8126C36.6623 42.8193 36.6623 42.8193 36.6623 42.8193C35.9488 49.1442 30.9479 54.1747 24.6277 54.9661C24.419 54.9996 24.2037 55.0198 23.9883 55.0332C23.9142 55.0332 23.8402 55.0332 23.7594 55.0332Z" fill="#EFAC00"/>
</svg>
