<svg width="298" height="34" viewBox="0 0 298 34" fill="none" xmlns="http://www.w3.org/2000/svg">
<path d="M16.5207 12.3344C17.1646 11.6367 17.9486 11.0828 18.8214 10.7091C19.7067 10.3348 20.6592 10.1453 21.6204 10.1521C23.7704 10.1521 25.32 10.7885 26.2691 12.0612C27.2179 13.3346 27.6924 15.4654 27.6925 18.4536V27.4433H28.0247C28.3343 27.4203 28.6452 27.4669 28.9345 27.5797C29.2238 27.6925 29.4842 27.8686 29.6965 28.0952C30.1044 28.6449 30.3023 29.3224 30.2543 30.0053C30.2543 30.9544 30.0606 31.6304 29.6732 32.0333C29.2852 32.4365 28.6249 32.6381 27.6925 32.6381H23.6601C23.307 32.6594 22.9568 32.5635 22.6639 32.3652C22.5486 32.2788 22.4559 32.1658 22.394 32.0358C22.332 31.9057 22.3025 31.7626 22.308 31.6187V18.2163C22.3624 17.3951 22.1901 16.5747 21.8099 15.8447C21.6613 15.5963 21.4486 15.3925 21.194 15.2547C20.9394 15.1169 20.6524 15.0503 20.3632 15.0619C19.9897 15.0536 19.621 15.1475 19.297 15.3335C18.9729 15.5195 18.7059 15.7905 18.5247 16.1172C18.0371 17.0474 17.8118 18.0927 17.8728 19.1411V27.4433H18.2282C18.536 27.4226 18.8445 27.4703 19.1317 27.583C19.4188 27.6958 19.6774 27.8707 19.8889 28.0952C20.3041 28.6417 20.5063 29.3207 20.4578 30.0053C20.4578 30.9544 20.2602 31.6304 19.8651 32.0333C19.4697 32.4365 18.8056 32.6381 17.8728 32.6381H13.8403C13.48 32.6568 13.123 32.5613 12.8201 32.3652C12.6992 32.2827 12.6011 32.1711 12.5347 32.0406C12.4684 31.9101 12.4361 31.765 12.4407 31.6187V18.2163C12.4934 17.3978 12.3297 16.5799 11.9661 15.8447C11.8241 15.5959 11.616 15.391 11.3649 15.2529C11.1139 15.1148 10.8295 15.0486 10.5432 15.0619C10.1655 15.0557 9.79319 15.1517 9.4655 15.3395C9.13781 15.5274 8.86692 15.8003 8.68141 16.1293C8.17969 17.0506 7.94542 18.0938 8.00505 19.1411V27.4433H8.36093C8.66975 27.42 8.97991 27.4654 9.2691 27.5762C9.5583 27.6871 9.81935 27.8606 10.0335 28.0843C10.4443 28.6367 10.642 29.3188 10.5905 30.0053C10.5905 30.9544 10.393 31.6304 9.99782 32.0333C9.60245 32.4365 8.93819 32.6381 8.00505 32.6381H2.62095C2.26825 32.6724 1.91225 32.6355 1.57406 32.5297C1.23587 32.4238 0.922381 32.2512 0.652184 32.0219C0.271378 31.4393 0.0656136 30.7597 0.0592878 30.0638C0.052962 29.3678 0.246338 28.6846 0.616492 28.0952C0.8289 27.8686 1.08936 27.6925 1.37874 27.5796C1.66812 27.4668 1.97909 27.4202 2.28883 27.4433H2.62095V15.9161H2.28883C1.97357 15.9373 1.65758 15.8875 1.3641 15.7704C1.07061 15.6534 0.807112 15.472 0.592978 15.2397C0.172471 14.6865 -0.0339027 13.9999 0.0118978 13.3065C-0.0550208 12.5925 0.162209 11.8808 0.616492 11.3258C1.17956 10.8694 1.89941 10.6523 2.62095 10.7215H5.82321C6.05769 10.6929 6.29554 10.7128 6.52197 10.7801C6.74841 10.8474 6.95857 10.9606 7.13937 11.1126C7.41892 11.5623 7.54003 12.0925 7.48342 12.619C8.02966 11.8459 8.75362 11.2154 9.59437 10.7805C10.4482 10.3542 11.3918 10.1387 12.3461 10.1521C13.1762 10.1321 13.9985 10.3154 14.7416 10.6859C15.4624 11.0791 16.0738 11.6456 16.5207 12.3344Z" fill="#B6B6B6"/>
<path d="M70.8332 27.4433H71.2131C71.568 27.419 71.9241 27.4664 72.2602 27.5827C72.5964 27.6989 72.9057 27.8816 73.1698 28.1199C73.4067 28.3798 73.5888 28.6849 73.705 29.0169C73.8213 29.3488 73.8693 29.7009 73.8462 30.0518C73.8807 30.4131 73.836 30.7776 73.7151 31.1198C73.5943 31.462 73.4002 31.7737 73.1465 32.0332C72.6793 32.4365 71.9082 32.6381 70.8332 32.6381H68.6045C67.982 32.6847 67.3613 32.5263 66.8374 32.1868C66.3631 31.7481 66.029 31.179 65.8768 30.5511C64.5863 31.4097 63.1803 32.0805 61.701 32.5434C60.258 32.9972 58.7544 33.229 57.2418 33.231C54.696 33.231 52.6958 32.5984 51.2413 31.3333C49.7865 30.069 49.059 28.3374 49.0588 26.1385C49.0176 25.0528 49.2555 23.9746 49.7498 23.0071C50.2441 22.0395 50.9782 21.2148 51.882 20.6118C53.7636 19.2999 56.4043 18.644 59.8042 18.6442C60.5631 18.6442 61.3695 18.6835 62.2234 18.7621C63.0778 18.841 64.0346 18.9674 65.0937 19.1411V18.6908C65.0937 17.2677 64.7498 16.1845 64.0619 15.4413C63.3743 14.6985 62.3585 14.3269 61.0144 14.3264C59.9695 14.3264 58.6369 14.7139 57.0166 15.4888C55.3957 16.2638 54.2057 16.6512 53.4466 16.6509C52.7832 16.6801 52.1351 16.4458 51.6438 15.999C51.4145 15.777 51.2348 15.509 51.1165 15.2125C50.9981 14.9161 50.9439 14.598 50.9572 14.2791C50.9572 12.9984 51.8939 11.9824 53.7674 11.2312C55.6415 10.4804 58.1913 10.1049 61.4167 10.1047C64.7851 10.1047 67.1967 10.753 68.6516 12.0495C70.1054 13.3462 70.8326 15.5444 70.8332 18.6442V27.4433ZM65.0937 22.8652C64.3029 22.6916 63.5754 22.5615 62.9109 22.4748C62.2979 22.3911 61.68 22.3473 61.0612 22.3436C59.3214 22.3436 57.9575 22.6362 56.9696 23.2213C56.5222 23.4471 56.1466 23.7931 55.8849 24.2204C55.6231 24.6477 55.4856 25.1395 55.4877 25.6406C55.4639 26.0412 55.5378 26.4416 55.703 26.8073C55.8682 27.173 56.1198 27.4931 56.4361 27.74C57.242 28.2724 58.2 28.5264 59.1638 28.4632C60.2102 28.4704 61.2511 28.31 62.2469 27.9882C63.2649 27.6455 64.2248 27.1499 65.0937 26.5184V22.8652Z" fill="#B6B6B6"/>
<path d="M106.242 19.7584V27.4434H111.84C112.915 27.4434 113.678 27.6411 114.129 28.0364C114.376 28.2969 114.565 28.6076 114.681 28.9474C114.798 29.2871 114.84 29.6479 114.804 30.0054C114.839 30.3701 114.797 30.738 114.681 31.0853C114.564 31.4327 114.376 31.7518 114.129 32.022C113.678 32.4328 112.915 32.6382 111.84 32.6382H98.581C97.489 32.6382 96.7142 32.4328 96.2566 32.022C96.0052 31.754 95.8137 31.4356 95.695 31.0879C95.5763 30.7401 95.533 30.3711 95.568 30.0054C95.5327 29.6479 95.5748 29.2869 95.6916 28.9471C95.8083 28.6074 95.9969 28.2967 96.2444 28.0364C96.6956 27.6417 97.4745 27.444 98.581 27.4434H100.384V15.9162H99.3632C98.2883 15.9162 97.5254 15.7145 97.0744 15.3111C96.8266 15.0437 96.6382 14.7268 96.5218 14.3813C96.4054 14.0358 96.3636 13.6695 96.3992 13.3066C96.3992 12.3737 96.6162 11.7096 97.0502 11.3143C97.4852 10.9194 98.2562 10.7219 99.3632 10.7216H104.415C104.768 10.7 105.118 10.7958 105.411 10.9941C105.527 11.0802 105.62 11.1933 105.682 11.3234C105.744 11.4536 105.774 11.5969 105.768 11.7411V15.2514C107.15 13.677 108.781 12.339 110.595 11.2903C112.081 10.5019 113.739 10.0946 115.422 10.1049C116.746 10.0334 118.056 10.4046 119.146 11.16C119.587 11.4858 119.943 11.914 120.183 12.4078C120.422 12.9016 120.538 13.4462 120.521 13.9947C120.534 14.4181 120.455 14.8393 120.292 15.23C120.128 15.6208 119.883 15.972 119.572 16.2599C118.906 16.8653 118.028 17.1846 117.129 17.1489C116.236 17.0957 115.37 16.8274 114.604 16.3667C113.987 15.9724 113.298 15.7062 112.576 15.584C111.603 15.6604 110.673 16.0143 109.895 16.6037C108.576 17.5318 107.353 18.5886 106.242 19.7584Z" fill="#B6B6B6"/>
<path d="M156.784 27.4433H161.884C162.975 27.4433 163.75 27.641 164.208 28.0363C164.459 28.2947 164.651 28.6048 164.769 28.9449C164.888 29.2849 164.931 29.6468 164.896 30.0053C164.931 30.3719 164.886 30.7418 164.766 31.0897C164.645 31.4377 164.451 31.7556 164.196 32.0219C163.73 32.4327 162.959 32.6381 161.884 32.6381H145.849C144.774 32.6381 144.003 32.4327 143.537 32.0219C143.282 31.7558 143.088 31.4379 142.967 31.0899C142.846 30.7419 142.802 30.372 142.837 30.0053C142.802 29.6479 142.844 29.287 142.961 28.9473C143.077 28.6076 143.265 28.2969 143.512 28.0363C143.964 27.6416 144.743 27.4439 145.849 27.4433H150.949V15.9161H148.269C147.209 15.9161 146.45 15.7144 145.992 15.311C145.533 14.9078 145.304 14.2396 145.304 13.3065C145.304 12.3736 145.525 11.7095 145.968 11.3142C146.41 10.9193 147.177 10.7218 148.269 10.7215H155.408C155.769 10.6981 156.127 10.7938 156.428 10.994C156.543 11.0803 156.636 11.1934 156.698 11.3235C156.76 11.4536 156.79 11.5969 156.784 11.741V27.4433ZM153.368 2.85538e-09C154.523 2.85538e-09 155.29 0.221412 155.669 0.66424C156.049 1.10694 156.239 2.16636 156.238 3.84249C156.238 5.45538 156.069 6.45566 155.729 6.84335C155.389 7.23064 154.586 7.42432 153.321 7.42438C152.088 7.42438 151.293 7.24243 150.937 6.87851C150.581 6.51503 150.404 5.78777 150.403 4.69672C150.403 2.67254 150.585 1.3837 150.949 0.830218C151.313 0.2767 152.119 -3.24577e-05 153.368 2.85538e-09Z" fill="#B6B6B6"/>
<path d="M199.617 10.1995C203.459 10.1995 206.574 11.2747 208.962 13.4252C210.093 14.4897 210.994 15.7743 211.61 17.2C212.226 18.6257 212.544 20.1623 212.544 21.7153C212.544 23.2683 212.226 24.8049 211.61 26.2306C210.994 27.6563 210.093 28.9409 208.962 30.0054C206.574 32.1561 203.459 33.2313 199.617 33.2311C195.79 33.2311 192.683 32.1559 190.295 30.0054C189.163 28.9412 188.261 27.6564 187.645 26.2301C187.029 24.8039 186.712 23.2665 186.713 21.7128C186.714 20.1592 187.033 18.6223 187.651 17.1969C188.269 15.7715 189.173 14.4878 190.306 13.4252C192.702 11.2748 195.805 10.1995 199.617 10.1995ZM199.617 15.2041C198.772 15.176 197.93 15.3226 197.144 15.6348C196.358 15.947 195.646 16.4181 195.05 17.0186C194.454 17.6306 193.988 18.357 193.68 19.154C193.372 19.9511 193.229 20.8022 193.259 21.6561C193.23 22.5204 193.374 23.3819 193.682 24.1901C193.989 24.9984 194.454 25.7374 195.05 26.364C196.273 27.5583 197.914 28.227 199.622 28.227C201.331 28.227 202.972 27.5583 204.194 26.364C204.793 25.7391 205.262 25.0007 205.571 24.1921C205.881 23.3836 206.025 22.5214 205.997 21.6561C206.027 20.8023 205.884 19.9512 205.576 19.1541C205.268 18.3571 204.802 17.6306 204.206 17.0186C203.607 16.4167 202.89 15.9448 202.101 15.6326C201.311 15.3204 200.465 15.1745 199.617 15.2041Z" fill="#B6B6B6"/>
<path d="M242.914 4.50681H247.587C247.755 4.5007 247.92 4.54617 248.061 4.63709C248.118 4.66985 248.165 4.71652 248.198 4.77263C248.231 4.82873 248.25 4.8924 248.251 4.95758C248.252 5.06134 248.24 5.1648 248.215 5.2657C248.193 5.35756 248.157 5.44555 248.108 5.52678L242.274 16.841C242.175 17.0432 242.034 17.2214 241.859 17.3629C241.711 17.4726 241.532 17.531 241.348 17.5288C241.273 17.53 241.198 17.526 241.123 17.5169C241.071 17.5099 241.019 17.4981 240.969 17.4817L239.475 16.9356C239.28 16.8885 239.102 16.7855 238.965 16.6391C238.849 16.5129 238.786 16.3479 238.786 16.1769C238.784 16.07 238.788 15.9629 238.799 15.8565C238.807 15.7966 238.819 15.7372 238.834 15.6786L241.61 5.62163C241.674 5.276 241.834 4.95548 242.072 4.6968C242.326 4.54768 242.62 4.48128 242.914 4.50681Z" fill="#B6B6B6"/>
<path d="M280.804 32.3063C280.418 32.6073 279.991 32.8509 279.535 33.0295C279.107 33.1946 278.653 33.2791 278.195 33.2787C277.929 33.3071 277.661 33.2725 277.412 33.1777C277.162 33.0828 276.939 32.9304 276.76 32.7328C276.483 32.369 276.345 31.6894 276.345 30.6939V27.5385C276.345 26.4952 276.519 25.756 276.866 25.3207C277.097 25.082 277.38 24.8992 277.692 24.786C278.005 24.6729 278.339 24.6325 278.669 24.6679C279.134 24.6717 279.59 24.799 279.99 25.0367C280.39 25.2743 280.72 25.6139 280.946 26.0207C281.209 26.4067 281.503 26.7714 281.824 27.1114C282.608 27.8133 283.529 28.3461 284.528 28.6768C285.662 29.041 286.847 29.2172 288.038 29.1984C288.992 29.2458 289.94 29.015 290.765 28.5341C291.073 28.3617 291.33 28.1106 291.51 27.8064C291.689 27.5023 291.784 27.156 291.786 26.8029C291.786 25.5214 289.96 24.6359 286.306 24.1463C285.501 24.0517 284.868 23.9648 284.409 23.8857C281.658 23.5067 279.61 22.7594 278.266 21.6437C277.606 21.101 277.08 20.4128 276.73 19.633C276.38 18.8532 276.215 18.0029 276.249 17.1488C276.249 14.9195 277.056 13.196 278.669 11.9783C280.282 10.7608 282.582 10.1521 285.571 10.1522C286.631 10.1547 287.69 10.2379 288.737 10.4011C289.865 10.5774 290.979 10.8351 292.07 11.1721C292.36 10.8116 292.719 10.513 293.127 10.2941C293.513 10.101 293.939 10.0034 294.371 10.0095C294.648 9.99145 294.925 10.0365 295.182 10.1413C295.439 10.2462 295.669 10.408 295.854 10.6146C296.231 11.141 296.412 11.7833 296.363 12.4291V15.3467C296.4 15.9202 296.213 16.4856 295.842 16.9239C295.65 17.1157 295.42 17.2646 295.166 17.3608C294.913 17.4569 294.642 17.4981 294.371 17.4817C293.723 17.4817 292.612 16.9162 291.039 15.7851C289.682 14.7306 288.024 14.1365 286.306 14.0892C285.313 14.0349 284.323 14.2436 283.437 14.6943C283.128 14.8508 282.869 15.0902 282.689 15.3856C282.509 15.6809 282.415 16.0207 282.417 16.3667C282.417 17.4736 283.84 18.2168 286.686 18.5963C287.508 18.6909 288.156 18.77 288.632 18.8335C292.205 19.3552 294.659 20.1337 295.996 21.1692C297.332 22.2058 298.001 23.7439 298 25.7834C298 28.1704 297.119 30.0166 295.356 31.322C293.593 32.6258 291.09 33.278 287.848 33.2787C286.626 33.2821 285.406 33.1988 284.196 33.0295C283.05 32.8683 281.916 32.6266 280.804 32.3063Z" fill="#B6B6B6"/>
</svg>
