<svg width="170" height="38" viewBox="0 0 170 38" fill="none" xmlns="http://www.w3.org/2000/svg">
<path fill-rule="evenodd" clip-rule="evenodd" d="M81.5561 36.9228C81.7192 36.9228 81.8515 36.7905 81.8515 36.6274V23.9899L90.825 36.7969C90.8803 36.8758 90.9706 36.9228 91.0669 36.9228H100.214C100.459 36.9228 100.597 36.6421 100.448 36.4477L89.5835 22.2623L99.2091 11.1011C99.3742 10.9097 99.2382 10.6128 98.9854 10.6128H90.6586C90.5703 10.6128 90.4867 10.6523 90.4306 10.7203L81.8515 21.1269V0.295397C81.8515 0.132253 81.7192 0 81.5561 0H74.1193C73.9562 0 73.8239 0.132254 73.8239 0.295398V36.6274C73.8239 36.7905 73.9562 36.9228 74.1193 36.9228H81.5561ZM7.73216 36.9227C7.8953 36.9227 8.02755 36.7905 8.02755 36.6273V22.1141C8.02755 21.1598 8.21634 20.3042 8.59391 19.5473C8.97149 18.7904 9.48039 18.1981 10.1206 17.7703C10.7609 17.3425 11.5078 17.1286 12.3614 17.1286C13.5762 17.1286 14.5284 17.5811 15.2179 18.486C15.9074 19.391 16.2521 20.6333 16.2521 22.2129V36.6273C16.2521 36.7905 16.3844 36.9227 16.5475 36.9227H23.9843C24.1474 36.9227 24.2797 36.7905 24.2797 36.6273V22.1141C24.2797 21.1598 24.4684 20.3042 24.846 19.5473C25.2236 18.7904 25.7325 18.1981 26.3727 17.7703C27.013 17.3425 27.7599 17.1286 28.6135 17.1286C29.8283 17.1286 30.7805 17.5811 31.47 18.486C32.1595 19.391 32.5042 20.6333 32.5042 22.2129V36.6273C32.5042 36.7905 32.6365 36.9227 32.7996 36.9227H40.2364C40.3995 36.9227 40.5318 36.7905 40.5318 36.6273V21.2256C40.5318 18.8892 40.1542 16.8735 39.399 15.1788C38.6439 13.484 37.5604 12.1759 36.1486 11.2545C34.7368 10.3331 33.0788 9.87237 31.1745 9.87237C29.2702 9.87237 27.5793 10.3166 26.1019 11.2051C24.6244 12.0937 23.4753 13.2454 22.6544 14.6605C21.8993 13.1467 20.8569 11.9703 19.5271 11.1311C18.1974 10.2919 16.6789 9.87237 14.9716 9.87237C13.3628 9.87237 11.9182 10.2508 10.6377 11.0077C9.35727 11.7646 8.35588 12.7847 7.63356 14.0681V10.9082C7.63356 10.7451 7.50131 10.6128 7.33816 10.6128H0.295398C0.132254 10.6128 0 10.7451 0 10.9082V36.6273C0 36.7905 0.132254 36.9227 0.295398 36.9227H7.73216ZM57.0794 37.6632C59.0821 37.6632 60.9454 37.3094 62.6691 36.6019C64.3928 35.8944 65.8867 34.9153 67.1507 33.6648C68.4148 32.4143 69.3998 30.9417 70.1057 29.2469C70.8116 27.5522 71.1645 25.7176 71.1645 23.7431C71.1645 21.7686 70.8198 19.9422 70.1303 18.2639C69.4408 16.5856 68.464 15.113 67.2 13.846C65.9359 12.5791 64.4585 11.6 62.7676 10.909C61.0767 10.2179 59.2463 9.87237 57.2764 9.87237C55.2736 9.87237 53.4103 10.2261 51.6866 10.9337C49.9629 11.6412 48.469 12.6284 47.205 13.8954C45.9409 15.1623 44.9559 16.6432 44.25 18.3379C43.5441 20.0327 43.1912 21.8673 43.1912 23.8418C43.1912 25.8163 43.5359 27.6427 44.2254 29.321C44.9149 30.9993 45.8917 32.4637 47.1557 33.7142C48.4198 34.9647 49.8972 35.9355 51.5881 36.6266C53.279 37.3176 55.1094 37.6632 57.0794 37.6632ZM54.2229 29.5432C55.1094 30.1191 56.0944 30.407 57.1778 30.407C58.2613 30.407 59.2463 30.1191 60.1328 29.5432C61.0193 28.9673 61.7169 28.1775 62.2259 27.1738C62.7348 26.1701 62.9892 25.043 62.9892 23.7925C62.9892 22.5091 62.7348 21.3655 62.2259 20.3618C61.7169 19.3582 61.0193 18.5684 60.1328 17.9925C59.2463 17.4166 58.2613 17.1286 57.1778 17.1286C56.0944 17.1286 55.1094 17.4166 54.2229 17.9925C53.3364 18.5684 52.6388 19.3582 52.1298 20.3618C51.6209 21.3655 51.3665 22.5091 51.3665 23.7925C51.3665 25.043 51.6209 26.1701 52.1298 27.1738C52.6388 28.1775 53.3364 28.9673 54.2229 29.5432ZM118.296 36.75C116.654 37.3588 114.897 37.6632 113.026 37.6632C111.056 37.6632 109.25 37.3259 107.609 36.6512C105.967 35.9766 104.539 35.0141 103.324 33.7636C102.109 32.5131 101.173 31.0322 100.517 29.321C99.8602 27.6098 99.5318 25.734 99.5318 23.6937C99.5318 21.7192 99.8684 19.8928 100.541 18.2145C101.215 16.5362 102.15 15.0718 103.349 13.8213C104.547 12.5708 105.951 11.6 107.559 10.909C109.168 10.2179 110.908 9.87237 112.78 9.87237C114.75 9.87237 116.539 10.2097 118.148 10.8843C119.757 11.5589 121.136 12.5215 122.285 13.772C123.434 15.0225 124.32 16.5198 124.944 18.2639C125.568 20.008 125.88 21.9496 125.88 24.0886V25.5703C125.88 25.7334 125.748 25.8656 125.585 25.8656H107.756C108.085 27.4781 108.709 28.7204 109.628 29.5925C110.547 30.4645 111.713 30.9006 113.124 30.9006C114.175 30.9006 115.103 30.6867 115.907 30.2589C116.677 29.8492 117.365 29.2435 117.969 28.4416C118.018 28.3769 118.101 28.3473 118.179 28.3678L125.231 30.2178C125.314 30.2395 125.358 30.3294 125.325 30.4079C124.702 31.8586 123.796 33.1171 122.605 34.1831C121.374 35.2856 119.937 36.1412 118.296 36.75ZM107.756 20.732C108.052 19.1854 108.635 17.9925 109.505 17.1533C110.375 16.3141 111.466 15.8946 112.78 15.8946C114.06 15.8946 115.119 16.3141 115.956 17.1533C116.794 17.9925 117.343 19.1854 117.606 20.732H107.756ZM136.321 36.6273C136.321 36.7905 136.188 36.9227 136.025 36.9227H128.589C128.425 36.9227 128.293 36.7905 128.293 36.6273V10.9082C128.293 10.7451 128.425 10.6128 128.589 10.6128H135.631C135.794 10.6128 135.927 10.7451 135.927 10.9082V14.0681C136.682 12.7847 137.716 11.7646 139.029 11.0077C140.343 10.2508 141.853 9.87237 143.56 9.87237C145.432 9.87237 147.065 10.3331 148.46 11.2545C149.856 12.1759 150.939 13.4676 151.711 15.1294C152.482 16.7913 152.868 18.7575 152.868 21.0282V36.6273C152.868 36.7905 152.736 36.9227 152.573 36.9227H145.136C144.973 36.9227 144.841 36.7905 144.841 36.6273V22.1635C144.841 20.6168 144.488 19.391 143.782 18.486C143.076 17.5811 142.099 17.1286 140.852 17.1286C139.965 17.1286 139.185 17.3425 138.512 17.7703C137.839 18.1981 137.306 18.7822 136.912 19.5226C136.518 20.2631 136.321 21.094 136.321 22.0154V36.6273Z" fill="#B6B6B6"/>
<path d="M160.746 37.1708C161.674 37.1708 162.511 36.947 163.257 36.4994C164.003 36.0519 164.591 35.4551 165.022 34.7092C165.453 33.9632 165.669 33.1427 165.669 32.2475C165.669 31.3524 165.453 30.5318 165.022 29.7859C164.591 29.0399 164.003 28.4431 163.257 27.9956C162.511 27.548 161.674 27.3242 160.746 27.3242C159.817 27.3242 158.98 27.548 158.234 27.9956C157.488 28.4431 156.9 29.0399 156.469 29.7859C156.038 30.5318 155.822 31.3524 155.822 32.2475C155.822 33.1427 156.038 33.9632 156.469 34.7092C156.9 35.4551 157.488 36.0519 158.234 36.4994C158.98 36.947 159.817 37.1708 160.746 37.1708Z" fill="#B6B6B6"/>
<path d="M161.637 1.66187V2.56034H162.689V5.90784H163.645V2.56034H164.696V1.66187H161.637Z" fill="#B6B6B6"/>
<path d="M167.632 4.41739L166.487 1.66187H165.255V5.90784H166.211V3.30557L167.299 5.90784H167.951L169.047 3.29355V5.90784H170V1.66187H168.783L167.632 4.41739Z" fill="#B6B6B6"/>
</svg>
