<svg width="98" height="97" viewBox="0 0 98 97" fill="none" xmlns="http://www.w3.org/2000/svg">
<g filter="url(#filter0_dd)">
<rect x="19.6636" y="17.1804" width="57.0593" height="57.0593" rx="28.5296" transform="rotate(-1.96125 19.6636 17.1804)" fill="#F56C55"/>
</g>
<path d="M55.7071 45.7613C56.0976 45.3708 56.0976 44.7376 55.7071 44.3471L49.3431 37.9831C48.9526 37.5926 48.3195 37.5926 47.9289 37.9831C47.5384 38.3737 47.5384 39.0068 47.9289 39.3973L53.5858 45.0542L47.9289 50.7111C47.5384 51.1016 47.5384 51.7347 47.9289 52.1253C48.3195 52.5158 48.9526 52.5158 49.3431 52.1253L55.7071 45.7613ZM43 46.0542H55V44.0542H43V46.0542Z" fill="white"/>
<defs>
<filter id="filter0_dd" x="0.94099" y="0.516937" width="96.4238" height="96.4238" filterUnits="userSpaceOnUse" color-interpolation-filters="sRGB">
<feFlood flood-opacity="0" result="BackgroundImageFix"/>
<feColorMatrix in="SourceAlpha" type="matrix" values="0 0 0 0 0 0 0 0 0 0 0 0 0 0 0 0 0 0 127 0"/>
<feMorphology radius="0.891552" operator="erode" in="SourceAlpha" result="effect1_dropShadow"/>
<feOffset dy="4.01198"/>
<feGaussianBlur stdDeviation="9.80707"/>
<feColorMatrix type="matrix" values="0 0 0 0 0.960784 0 0 0 0 0.423529 0 0 0 0 0.333333 0 0 0 0.6 0"/>
<feBlend mode="normal" in2="BackgroundImageFix" result="effect1_dropShadow"/>
<feColorMatrix in="SourceAlpha" type="matrix" values="0 0 0 0 0 0 0 0 0 0 0 0 0 0 0 0 0 0 127 0"/>
<feMorphology radius="1.33733" operator="erode" in="SourceAlpha" result="effect2_dropShadow"/>
<feOffset dy="1.7831"/>
<feGaussianBlur stdDeviation="3.12043"/>
<feColorMatrix type="matrix" values="0 0 0 0 0.960784 0 0 0 0 0.42353 0 0 0 0 0.333333 0 0 0 0.6 0"/>
<feBlend mode="normal" in2="effect1_dropShadow" result="effect2_dropShadow"/>
<feBlend mode="normal" in="SourceGraphic" in2="effect2_dropShadow" result="shape"/>
</filter>
</defs>
</svg>
