<svg width="22" height="21" viewBox="0 0 22 21" fill="none" xmlns="http://www.w3.org/2000/svg">
<path d="M7.48536 6.61299C6.23637 7.67426 5.77867 9.60975 6.85714 11.1625C7.86634 12.6155 9.1376 13.8865 10.5903 14.8952C12.1431 15.9735 14.0785 15.5156 15.1396 14.2666L15.1514 14.2721C16.5069 14.9 17.9465 15.3303 19.4242 15.5496V18.6219L19.4229 18.6219L19.4196 18.6219C10.1383 18.6351 3.12007 11.5353 3.13 2.33192V2.32774H6.20187L6.20207 2.3291C6.42141 3.80661 6.85159 5.24503 7.47953 6.6004L7.48536 6.61299ZM19.4229 20.9497H20.5881C21.2308 20.9497 21.7519 20.4286 21.7519 19.7858V14.5457C21.7519 13.9689 21.3295 13.4791 20.7589 13.3945L19.7648 13.2469C18.5074 13.0603 17.2833 12.6943 16.1299 12.1599L15.2536 11.754C14.7459 11.5188 14.1426 11.6783 13.8173 12.1337L13.4207 12.689C13.073 13.1758 12.4093 13.3244 11.918 12.9833C10.6932 12.1328 9.61982 11.0596 8.76897 9.83459C8.42771 9.34326 8.57639 8.67942 9.06321 8.33176L9.6183 7.93535C10.0737 7.6101 10.2332 7.00675 9.99795 6.49894L9.59161 5.62188C9.05728 4.46856 8.69123 3.24458 8.50458 1.9873L8.35698 0.992967C8.27228 0.422438 7.7825 0 7.20572 0H1.96613C1.32334 0 0.802258 0.521083 0.802258 1.16387V2.32941C0.790946 12.8117 8.84486 20.9647 19.4229 20.9497Z" fill="#B1B2DD"/>
</svg>
