<svg width="97" height="97" viewBox="0 0 97 97" fill="none" xmlns="http://www.w3.org/2000/svg">
<g filter="url(#filter0_dd)">
<rect x="77.9785" y="72.2534" width="57.0593" height="57.0593" rx="28.5296" transform="rotate(178.039 77.9785 72.2534)" fill="white"/>
</g>
<path d="M41.935 43.6725C41.5445 44.0631 41.5445 44.6962 41.935 45.0867L48.2989 51.4507C48.6895 51.8412 49.3226 51.8412 49.7132 51.4507C50.1037 51.0602 50.1037 50.427 49.7132 50.0365L44.0563 44.3796L49.7132 38.7228C50.1037 38.3323 50.1037 37.6991 49.7132 37.3086C49.3226 36.918 48.6895 36.918 48.2989 37.3086L41.935 43.6725ZM54.6421 43.3796L42.6421 43.3796L42.6421 45.3796L54.6421 45.3796L54.6421 43.3796Z" fill="#F56C55"/>
<defs>
<filter id="filter0_dd" x="0.277416" y="0.516937" width="96.4238" height="96.4238" filterUnits="userSpaceOnUse" color-interpolation-filters="sRGB">
<feFlood flood-opacity="0" result="BackgroundImageFix"/>
<feColorMatrix in="SourceAlpha" type="matrix" values="0 0 0 0 0 0 0 0 0 0 0 0 0 0 0 0 0 0 127 0"/>
<feMorphology radius="0.891552" operator="erode" in="SourceAlpha" result="effect1_dropShadow"/>
<feOffset dy="4.01198"/>
<feGaussianBlur stdDeviation="9.80707"/>
<feColorMatrix type="matrix" values="0 0 0 0 0.0941176 0 0 0 0 0.152941 0 0 0 0 0.294118 0 0 0 0.14 0"/>
<feBlend mode="normal" in2="BackgroundImageFix" result="effect1_dropShadow"/>
<feColorMatrix in="SourceAlpha" type="matrix" values="0 0 0 0 0 0 0 0 0 0 0 0 0 0 0 0 0 0 127 0"/>
<feMorphology radius="1.33733" operator="erode" in="SourceAlpha" result="effect2_dropShadow"/>
<feOffset dy="1.7831"/>
<feGaussianBlur stdDeviation="3.12043"/>
<feColorMatrix type="matrix" values="0 0 0 0 0.0941176 0 0 0 0 0.152941 0 0 0 0 0.294118 0 0 0 0.12 0"/>
<feBlend mode="normal" in2="effect1_dropShadow" result="effect2_dropShadow"/>
<feBlend mode="normal" in="SourceGraphic" in2="effect2_dropShadow" result="shape"/>
</filter>
</defs>
</svg>
