<svg width="70" height="66" xmlns="http://www.w3.org/2000/svg" fill="none">

 <g>
  <title>Layer 1</title>
  <rect id="svg_1" fill="#EAEAF6" rx="9.66055" height="64.4037" width="68.6973" y="0.96326" x="0.71582"/>
  <g id="svg_6">
   <path id="svg_5" fill="#B1B2DD" d="m27.97597,45.64323l-2.8096,0l0,-2.8096l-4.21441,0l0,-2.8096l4.21441,0l0,-2.8096l2.8096,0l0,8.4288zm21.07207,-2.8096l-18.2625,0l0,-2.8096l18.2625,0l0,2.8096zm-7.024,-5.6192l-2.8096,0l0,-2.8096l-18.26248,0l0,-2.8096l18.26248,0l0,-2.79278l2.8096,0l0,8.41198zm7.024,-2.8096l-4.2144,0l0,-2.8096l4.2144,0l0,2.8096zm-15.4529,-5.61924l-2.8096,0l0,-2.8096l-9.83358,0l0,-2.80961l9.83358,0l0,-2.80961l2.8096,0l0,8.42882zm15.4529,-2.8096l-12.6432,0l0,-2.80961l12.6432,0l0,2.80961z"/>
  </g>
 </g>
</svg>