<svg width="70" height="65" viewBox="0 0 70 65" fill="none" xmlns="http://www.w3.org/2000/svg">
<rect x="0.71582" y="0.0546875" width="68.6973" height="64.4037" rx="9.66055" fill="#EAEAF6"/>
<path d="M40.3013 20.1714C35.2803 20.1714 31.1953 24.3115 31.1953 29.3326C31.1953 34.3536 35.2803 38.4386 40.3013 38.4386C45.3224 38.4386 49.4625 34.3536 49.4625 29.3326C49.4625 24.3115 45.3224 20.1714 40.3013 20.1714ZM43.1276 30.9882L41.957 32.1588L40.3013 30.5032L38.6457 32.1588L37.4751 30.9882L39.1307 29.3326L37.4751 27.677L38.6457 26.5064L40.3013 28.162L41.957 26.5064L43.1276 27.677L41.4719 29.3326L43.1276 30.9882Z" fill="#B1B2DD"/>
<path d="M29.5394 42.0917L26.7132 39.2655L27.8838 38.0949L29.5394 39.7505L32.5443 36.7457C30.8854 35.0106 29.7872 32.7343 29.5834 30.1992C24.9286 30.5988 21.2061 34.5089 21.2061 39.2655C21.2061 44.2865 25.3462 48.4267 30.3673 48.4267C35.1238 48.4267 39.034 44.7041 39.4335 40.0493C37.3122 39.8787 35.3825 39.0693 33.7863 37.8449L29.5394 42.0917Z" fill="#B1B2DD"/>
</svg>
