<svg width="24" height="24" viewBox="0 0 24 24" fill="none" xmlns="http://www.w3.org/2000/svg">
<path d="M12.1011 23.6536C6.34771 23.5777 1.7021 18.9321 1.62627 13.1787C1.7021 7.42535 6.34771 2.77973 12.1011 2.7039C17.8545 2.77973 22.5001 7.42535 22.5759 13.1787C22.5001 18.9321 17.8545 23.5777 12.1011 23.6536ZM12.1011 5.03164C7.62622 5.09055 4.01292 8.70385 3.95401 13.1787C4.01292 17.6536 7.62622 21.2669 12.1011 21.3258C16.576 21.2669 20.1893 17.6536 20.2482 13.1787C20.1893 8.70385 16.576 5.09055 12.1011 5.03164ZM17.9205 14.3426H10.9372V7.35938H13.265V12.0149H17.9205V14.3426ZM21.7519 5.85566L18.2498 2.36405L19.8897 0.714844L23.393 4.20646L21.7519 5.8545V5.85566ZM2.44912 5.85566L0.802246 4.20646L4.28338 0.714844L5.93026 2.36405L2.45145 5.85566H2.44912Z" fill="#B1B2DD"/>
</svg>
