<svg width="26" height="22" viewBox="0 0 26 22" fill="none" xmlns="http://www.w3.org/2000/svg">
<path fill-rule="evenodd" clip-rule="evenodd" d="M12.8682 5.87654L12.9228 6.77694L12.0124 6.66669C8.69853 6.24405 5.80343 4.81076 3.34534 2.40358L2.1436 1.20917L1.83406 2.09119C1.17857 4.05737 1.59736 6.1338 2.96297 7.53033C3.69129 8.3021 3.52742 8.41236 2.27106 7.95297C1.83406 7.80597 1.45169 7.69571 1.41527 7.75084C1.28782 7.87947 1.72481 9.55164 2.07077 10.2132C2.54418 11.1319 3.50921 12.0323 4.56528 12.5652L5.45748 12.9879L4.40141 13.0062C3.38175 13.0062 3.34534 13.0246 3.45459 13.4105C3.81875 14.6049 5.25719 15.8728 6.85951 16.4241L7.98841 16.8099L7.00517 17.398C5.54852 18.2432 3.83696 18.721 2.12539 18.7577C1.30603 18.7761 0.632324 18.8496 0.632324 18.9048C0.632324 19.0885 2.85372 20.1175 4.14649 20.5218C8.02483 21.7162 12.6315 21.2017 16.091 19.162C18.5491 17.7103 21.0072 14.8254 22.1543 12.0323C22.7734 10.5439 23.3925 7.82434 23.3925 6.51968C23.3925 5.67441 23.4471 5.56416 24.4668 4.55351C25.0676 3.96549 25.6321 3.32235 25.7413 3.1386C25.9234 2.78946 25.9052 2.78946 24.9766 3.10184C23.4289 3.65311 23.2104 3.57961 23.9752 2.75271C24.5396 2.1647 25.2133 1.09892 25.2133 0.786535C25.2133 0.731409 24.9402 0.823286 24.6306 0.988665C24.3029 1.17242 23.5746 1.44805 23.0283 1.61343L22.0451 1.92581L21.1529 1.31942C20.6613 0.988665 19.9694 0.621156 19.6052 0.510903C18.6766 0.253646 17.2564 0.290397 16.4188 0.584405C14.1428 1.4113 12.7043 3.54286 12.8682 5.87654Z" fill="#2E1A47"/>
</svg>
