<svg width="28" height="21" viewBox="0 0 28 21" fill="none" xmlns="http://www.w3.org/2000/svg">
<path fill-rule="evenodd" clip-rule="evenodd" d="M24.6282 1.02335C25.8068 1.34732 26.735 2.30191 27.05 3.51414C27.6224 5.71117 27.6224 10.2953 27.6224 10.2953C27.6224 10.2953 27.6224 14.8793 27.05 17.0765C26.735 18.2887 25.8068 19.2433 24.6282 19.5674C22.4923 20.156 13.9269 20.156 13.9269 20.156C13.9269 20.156 5.36148 20.156 3.22546 19.5674C2.04687 19.2433 1.11869 18.2887 0.803698 17.0765C0.231445 14.8793 0.231445 10.2953 0.231445 10.2953C0.231445 10.2953 0.231445 5.71117 0.803698 3.51414C1.11869 2.30191 2.04687 1.34732 3.22546 1.02335C5.36148 0.43457 13.9269 0.43457 13.9269 0.43457C13.9269 0.43457 22.4923 0.43457 24.6282 1.02335ZM11.359 6.43666V15.0112L18.2068 10.7241L11.359 6.43666Z" fill="#2E1A47"/>
</svg>
